<?xml version="1.0" encoding="utf-8"?>
<svg version="1.1" xmlns:xlink="http://www.w3.org/1999/xlink" width="22px" height="20px" xmlns="http://www.w3.org/2000/svg">
  <g transform="matrix(1 0 0 1 -491 -507 )">
    <path d="M 5.9619140625 5.56954436450839  C 6.14095052083333 5.37370103916866  6.23046875 5.1119104716227  6.23046875 4.7841726618705  C 6.23046875 4.4564348521183  6.14095052083333 4.19264588329336  5.9619140625 3.99280575539568  C 5.78287760416667 3.792965627498  5.54654947916667 3.69304556354916  5.2529296875 3.69304556354916  C 4.94498697916667 3.69304556354916  4.6728515625 3.79496402877698  4.4365234375 3.99880095923261  C 4.2001953125 4.20263788968825  4.08203125 4.46442845723421  4.08203125 4.7841726618705  C 4.08203125 5.09592326139089  4.2001953125 5.3537170263789  4.4365234375 5.55755395683453  C 4.6728515625 5.76139088729017  4.94498697916667 5.86330935251798  5.2529296875 5.86330935251798  C 5.54654947916667 5.86330935251798  5.78287760416667 5.76538768984812  5.9619140625 5.56954436450839  Z M 13.93798828125 11.4748201438849  C 14.12060546875 11.2989608313349  14.2119140625 11.0951239008793  14.2119140625 10.863309352518  C 14.2119140625 10.6394884092726  14.12060546875 10.4396482813749  13.93798828125 10.2637889688249  C 13.75537109375 10.087929656275  13.5208333333333 10  13.234375 10  C 13.041015625 10  12.86376953125 10.089928057554  12.70263671875 10.2697841726619  C 12.54150390625 10.4496402877698  12.4609375 10.6474820143885  12.4609375 10.863309352518  C 12.4609375 11.0871302957634  12.54150390625 11.28896882494  12.70263671875 11.468824940048  C 12.86376953125 11.6486810551559  13.041015625 11.7386091127098  13.234375 11.7386091127098  C 13.5208333333333 11.7386091127098  13.75537109375 11.6506794564349  13.93798828125 11.4748201438849  Z M 11.41357421875 5.56954436450839  C 11.5890299479167 5.37370103916866  11.6767578125 5.1119104716227  11.6767578125 4.7841726618705  C 11.6767578125 4.4564348521183  11.5890299479167 4.19264588329336  11.41357421875 3.99280575539568  C 11.2381184895833 3.792965627498  11.0035807291667 3.69304556354916  10.7099609375 3.69304556354916  C 10.4020182291667 3.69304556354916  10.1298828125 3.79496402877698  9.8935546875 3.99880095923261  C 9.6572265625 4.20263788968825  9.5390625 4.46442845723421  9.5390625 4.7841726618705  C 9.5390625 5.09592326139089  9.6572265625 5.3537170263789  9.8935546875 5.55755395683453  C 10.1298828125 5.76139088729017  10.4020182291667 5.86330935251798  10.7099609375 5.86330935251798  C 11.0035807291667 5.86330935251798  11.2381184895833 5.76538768984812  11.41357421875 5.56954436450839  Z M 18.21875 11.4748201438849  C 18.4049479166667 11.2989608313349  18.498046875 11.0951239008793  18.498046875 10.863309352518  C 18.498046875 10.6394884092726  18.4049479166667 10.4396482813749  18.21875 10.2637889688249  C 18.0325520833333 10.087929656275  17.7998046875 10  17.5205078125 10  C 17.3271484375 10  17.14990234375 10.089928057554  16.98876953125 10.2697841726619  C 16.82763671875 10.4496402877698  16.7470703125 10.6474820143885  16.7470703125 10.863309352518  C 16.7470703125 11.0871302957634  16.82763671875 11.28896882494  16.98876953125 11.468824940048  C 17.14990234375 11.6486810551559  17.3271484375 11.7386091127098  17.5205078125 11.7386091127098  C 17.7998046875 11.7386091127098  18.0325520833333 11.6506794564349  18.21875 11.4748201438849  Z M 14.17431640625 2.97961630695444  C 14.9298502604167 3.91087130295763  15.4186197916667 4.95203836930456  15.640625 6.1031175059952  C 15.4186197916667 6.07114308553157  15.16796875 6.05515587529976  14.888671875 6.05515587529976  C 13.6783854166667 6.05515587529976  12.5647786458333 6.36290967226219  11.5478515625 6.97841726618705  C 10.5309244791667 7.59392486011191  9.73063151041667 8.42725819344524  9.14697265625 9.47841726618705  C 8.56331380208333 10.5295763389289  8.271484375 11.6786570743405  8.271484375 12.9256594724221  C 8.271484375 13.5491606714628  8.35384114583333 14.1566746602718  8.5185546875 14.7482014388489  C 8.26790364583333 14.7721822541966  8.0244140625 14.7841726618705  7.7880859375 14.7841726618705  C 7.60188802083333 14.7841726618705  7.4228515625 14.7781774580336  7.2509765625 14.7661870503597  C 7.0791015625 14.7541966426859  6.88216145833333 14.7282174260592  6.66015625 14.6882494004796  C 6.43815104166667 14.6482813749001  6.27880859375 14.6203037569944  6.18212890625 14.6043165467626  C 6.08544921875 14.5883293365308  5.89029947916667 14.5463629096723  5.5966796875 14.4784172661871  C 5.30305989583333 14.4104716227018  5.1240234375 14.3685051958433  5.0595703125 14.3525179856115  L 2.341796875 15.8752997601918  L 3.115234375 13.2613908872902  C 1.03841145833333 11.638689048761  0 9.68025579536371  0 7.38609112709832  C 0 6.03517186250999  0.34912109375 4.79216626698641  1.04736328125 3.65707434052758  C 1.74560546875 2.52198241406874  2.69091796875 1.62869704236611  3.88330078125 0.977218225419665  C 5.07568359375 0.32573940847322  6.37727864583333 0  7.7880859375 0  C 9.04850260416667 0  10.2390950520833 0.263788968824941  11.35986328125 0.79136690647482  C 12.4806315104167 1.3189448441247  13.4187825520833 2.04836131095124  14.17431640625 2.97961630695444  Z M 21.08154296875 9.67026378896882  C 21.69384765625 10.6414868105516  22 11.6946442845723  22 12.8297362110312  C 22 13.7649880095923  21.7547200520833 14.658273381295  21.26416015625 15.5095923261391  C 20.7736002604167 16.3609112709832  20.109375 17.1342925659472  19.271484375 17.8297362110312  L 19.8623046875 20  L 17.724609375 18.6930455635492  C 16.650390625 18.9888089528377  15.8697916666667 19.136690647482  15.3828125 19.136690647482  C 14.1725260416667 19.136690647482  13.0589192708333 18.8549160671463  12.0419921875 18.2913669064748  C 11.0250651041667 17.7278177458034  10.2247721354167 16.9624300559552  9.64111328125 15.9952038369305  C 9.05745442708333 15.0279776179057  8.765625 13.9728217426059  8.765625 12.8297362110312  C 8.765625 11.6866506794564  9.05745442708333 10.6314948041567  9.64111328125 9.66426858513189  C 10.2247721354167 8.69704236610711  11.0250651041667 7.93165467625899  12.0419921875 7.36810551558753  C 13.0589192708333 6.80455635491607  14.1725260416667 6.52278177458034  15.3828125 6.52278177458034  C 16.5358072916667 6.52278177458034  17.6207682291667 6.80455635491607  18.6376953125 7.36810551558753  C 19.6546223958333 7.93165467625899  20.46923828125 8.69904076738609  21.08154296875 9.67026378896882  Z " fill-rule="nonzero" fill="#02830f" stroke="none" fill-opacity="0.796078431372549" transform="matrix(1 0 0 1 491 507 )" />
  </g>
</svg>