<?xml version="1.0" encoding="utf-8"?>
<svg version="1.1" xmlns:xlink="http://www.w3.org/1999/xlink" width="11px" height="9px" xmlns="http://www.w3.org/2000/svg">
  <g transform="matrix(1 0 0 1 -338 -414 )">
    <path d="M 9.06026785714286 4.828125  C 9.8296130952381 4.09375  10.2142857142857 3.3984375  10.2142857142857 2.7421875  C 10.2142857142857 2.42578125  10.1702938988095 2.146484375  10.0823102678571 1.904296875  C 9.99432663690476 1.662109375  9.88178943452381 1.4697265625  9.74469866071428 1.3271484375  C 9.60760788690476 1.1845703125  9.44084821428572 1.068359375  9.24441964285714 0.978515625  C 9.04799107142857 0.888671874999999  8.85565476190476 0.828125  8.66741071428572 0.796875  C 8.47916666666667 0.765624999999999  8.27864583333333 0.75  8.06584821428572 0.75  C 7.8530505952381 0.75  7.62388392857143 0.7998046875  7.37834821428571 0.8994140625  C 7.1328125 0.9990234375  6.90671502976191 1.1240234375  6.70005580357143 1.2744140625  C 6.49339657738095 1.4248046875  6.31640625 1.5654296875  6.16908482142857 1.6962890625  C 6.02176339285714 1.8271484375  5.89899553571429 1.947265625  5.80078125 2.056640625  C 5.72712053571429 2.142578125  5.62686011904762 2.185546875  5.5 2.185546875  C 5.37313988095238 2.185546875  5.27287946428571 2.142578125  5.19921875 2.056640625  C 5.10100446428571 1.947265625  4.97823660714286 1.8271484375  4.83091517857143 1.6962890625  C 4.68359375 1.5654296875  4.50660342261905 1.4248046875  4.29994419642857 1.2744140625  C 4.0932849702381 1.1240234375  3.8671875 0.9990234375  3.62165178571429 0.8994140625  C 3.37611607142857 0.7998046875  3.14694940476191 0.75  2.93415178571429 0.75  C 2.72135416666667 0.75  2.52083333333333 0.765624999999999  2.33258928571429 0.796875  C 2.14434523809524 0.828125  1.95200892857143 0.888671874999999  1.75558035714286 0.978515625  C 1.55915178571429 1.068359375  1.39239211309524 1.1845703125  1.25530133928571 1.3271484375  C 1.11821056547619 1.4697265625  1.00567336309524 1.662109375  0.917689732142857 1.904296875  C 0.829706101190476 2.146484375  0.785714285714286 2.42578125  0.785714285714286 2.7421875  C 0.785714285714286 3.3984375  1.16834077380952 4.091796875  1.93359375 4.822265625  L 5.5 8.103515625  L 9.06026785714286 4.828125  Z M 10.2204241071429 0.7265625  C 10.7401413690476 1.2109375  11 1.8828125  11 2.7421875  C 11 3.60546875  10.5314360119048 4.484375  9.59430803571428 5.37890625  L 5.77008928571429 8.89453125  C 5.69642857142857 8.96484375  5.60639880952381 9  5.5 9  C 5.39360119047619 9  5.30357142857143 8.96484375  5.22991071428571 8.89453125  L 1.39955357142857 5.3671875  C 1.35863095238095 5.3359375  1.30236235119048 5.28515625  1.23074776785714 5.21484375  C 1.15913318452381 5.14453125  1.04557291666667 5.0166015625  0.890066964285714 4.8310546875  C 0.734561011904762 4.6455078125  0.595424107142857 4.455078125  0.47265625 4.259765625  C 0.349888392857143 4.064453125  0.240420386904762 3.828125  0.144252232142857 3.55078125  C 0.0480840773809524 3.2734375  0 3.00390625  0 2.7421875  C 0 1.8828125  0.259858630952381 1.2109375  0.779575892857143 0.7265625  C 1.2992931547619 0.2421875  2.01748511904762 0  2.93415178571429 0  C 3.18787202380952 0  3.44670758928571 0.0419921874999994  3.71065848214286 0.1259765625  C 3.974609375 0.209960937499999  4.22014508928571 0.323242187499999  4.447265625 0.4658203125  C 4.67438616071429 0.6083984375  4.86979166666667 0.742187499999999  5.03348214285714 0.8671875  C 5.19717261904762 0.992187499999999  5.35267857142857 1.125  5.5 1.265625  C 5.64732142857143 1.125  5.80282738095238 0.992187499999999  5.96651785714286 0.8671875  C 6.13020833333333 0.742187499999999  6.32561383928571 0.6083984375  6.552734375 0.4658203125  C 6.77985491071429 0.323242187499999  7.025390625 0.209960937499999  7.28934151785714 0.1259765625  C 7.55329241071429 0.0419921874999994  7.81212797619048 0  8.06584821428572 0  C 8.98251488095238 0  9.7007068452381 0.2421875  10.2204241071429 0.7265625  Z " fill-rule="nonzero" fill="#ffffff" stroke="none" transform="matrix(1 0 0 1 338 414 )" />
  </g>
</svg>