<?xml version="1.0" encoding="utf-8"?>
<svg version="1.1" xmlns:xlink="http://www.w3.org/1999/xlink" width="10px" height="8px" xmlns="http://www.w3.org/2000/svg">
  <g transform="matrix(1 0 0 1 -366 -442 )">
    <path d="M 2.7099609375 2.22781774580336  C 2.79134114583333 2.14948041566747  2.83203125 2.04476418864908  2.83203125 1.9136690647482  C 2.83203125 1.78257394084732  2.79134114583333 1.67705835331735  2.7099609375 1.59712230215827  C 2.62858072916667 1.5171862509992  2.52115885416667 1.47721822541966  2.3876953125 1.47721822541966  C 2.24772135416667 1.47721822541966  2.1240234375 1.51798561151079  2.0166015625 1.59952038369305  C 1.9091796875 1.6810551558753  1.85546875 1.78577138289368  1.85546875 1.9136690647482  C 1.85546875 2.03836930455635  1.9091796875 2.14148681055156  2.0166015625 2.22302158273381  C 2.1240234375 2.30455635491607  2.24772135416667 2.34532374100719  2.3876953125 2.34532374100719  C 2.52115885416667 2.34532374100719  2.62858072916667 2.30615507593925  2.7099609375 2.22781774580336  Z M 6.33544921875 4.58992805755396  C 6.41845703125 4.51958433253397  6.4599609375 4.43804956035172  6.4599609375 4.34532374100719  C 6.4599609375 4.25579536370903  6.41845703125 4.17585931254996  6.33544921875 4.10551558752998  C 6.25244140625 4.03517186250999  6.14583333333333 4  6.015625 4  C 5.927734375 4  5.84716796875 4.03597122302158  5.77392578125 4.10791366906475  C 5.70068359375 4.17985611510791  5.6640625 4.2589928057554  5.6640625 4.34532374100719  C 5.6640625 4.43485211830536  5.70068359375 4.51558752997602  5.77392578125 4.58752997601918  C 5.84716796875 4.65947242206235  5.927734375 4.69544364508393  6.015625 4.69544364508393  C 6.14583333333333 4.69544364508393  6.25244140625 4.66027178257394  6.33544921875 4.58992805755396  Z M 5.18798828125 2.22781774580336  C 5.26774088541667 2.14948041566747  5.3076171875 2.04476418864908  5.3076171875 1.9136690647482  C 5.3076171875 1.78257394084732  5.26774088541667 1.67705835331735  5.18798828125 1.59712230215827  C 5.10823567708333 1.5171862509992  5.00162760416667 1.47721822541966  4.8681640625 1.47721822541966  C 4.72819010416667 1.47721822541966  4.6044921875 1.51798561151079  4.4970703125 1.59952038369305  C 4.3896484375 1.6810551558753  4.3359375 1.78577138289368  4.3359375 1.9136690647482  C 4.3359375 2.03836930455635  4.3896484375 2.14148681055156  4.4970703125 2.22302158273381  C 4.6044921875 2.30455635491607  4.72819010416667 2.34532374100719  4.8681640625 2.34532374100719  C 5.00162760416667 2.34532374100719  5.10823567708333 2.30615507593925  5.18798828125 2.22781774580336  Z M 8.28125 4.58992805755396  C 8.36588541666667 4.51958433253397  8.408203125 4.43804956035172  8.408203125 4.34532374100719  C 8.408203125 4.25579536370903  8.36588541666667 4.17585931254996  8.28125 4.10551558752998  C 8.19661458333333 4.03517186250999  8.0908203125 4  7.9638671875 4  C 7.8759765625 4  7.79541015625 4.03597122302158  7.72216796875 4.10791366906475  C 7.64892578125 4.17985611510791  7.6123046875 4.2589928057554  7.6123046875 4.34532374100719  C 7.6123046875 4.43485211830536  7.64892578125 4.51558752997602  7.72216796875 4.58752997601918  C 7.79541015625 4.65947242206235  7.8759765625 4.69544364508393  7.9638671875 4.69544364508393  C 8.0908203125 4.69544364508393  8.19661458333333 4.66027178257394  8.28125 4.58992805755396  Z M 6.44287109375 1.19184652278177  C 6.78629557291667 1.56434852118305  7.00846354166667 1.98081534772182  7.109375 2.44124700239808  C 7.00846354166667 2.42845723421263  6.89453125 2.4220623501199  6.767578125 2.4220623501199  C 6.21744791666667 2.4220623501199  5.71126302083333 2.54516386890488  5.2490234375 2.79136690647482  C 4.78678385416667 3.03756994404476  4.42301432291667 3.3709032773781  4.15771484375 3.79136690647482  C 3.89241536458333 4.21183053557154  3.759765625 4.67146282973621  3.759765625 5.17026378896882  C 3.759765625 5.41966426858513  3.79720052083333 5.66266986410871  3.8720703125 5.89928057553957  C 3.75813802083333 5.90887290167866  3.6474609375 5.9136690647482  3.5400390625 5.9136690647482  C 3.45540364583333 5.9136690647482  3.3740234375 5.91127098321343  3.2958984375 5.90647482014388  C 3.2177734375 5.90167865707434  3.12825520833333 5.89128697042366  3.02734375 5.87529976019185  C 2.92643229166667 5.85931254996003  2.85400390625 5.84812150279776  2.81005859375 5.84172661870504  C 2.76611328125 5.83533173461231  2.67740885416667 5.8185451638689  2.5439453125 5.79136690647482  C 2.41048177083333 5.76418864908073  2.3291015625 5.74740207833733  2.2998046875 5.7410071942446  L 1.064453125 6.35011990407674  L 1.416015625 5.30455635491607  C 0.472005208333333 4.6554756195044  0 3.87210231814548  0 2.95443645083933  C 0 2.414068745004  0.15869140625 1.91686650679456  0.47607421875 1.46282973621103  C 0.79345703125 1.0087929656275  1.22314453125 0.651478816946442  1.76513671875 0.390887290167866  C 2.30712890625 0.130295763389288  2.89876302083333 0  3.5400390625 0  C 4.11295572916667 0  4.65413411458333 0.105515587529976  5.16357421875 0.316546762589928  C 5.67301432291667 0.52757793764988  6.09944661458333 0.819344524380496  6.44287109375 1.19184652278177  Z M 9.58251953125 3.86810551558753  C 9.86083984375 4.25659472422062  10 4.67785771382894  10 5.13189448441247  C 10 5.50599520383693  9.88850911458333 5.86330935251799  9.66552734375 6.20383693045564  C 9.44254557291667 6.54436450839329  9.140625 6.8537170263789  8.759765625 7.13189448441247  L 9.0283203125 8  L 8.056640625 7.47721822541966  C 7.568359375 7.59552358113509  7.21354166666667 7.65467625899281  6.9921875 7.65467625899281  C 6.44205729166667 7.65467625899281  5.93587239583333 7.54196642685851  5.4736328125 7.31654676258993  C 5.01139322916667 7.09112709832134  4.64762369791667 6.78497202238209  4.38232421875 6.39808153477218  C 4.11702473958333 6.01119104716227  3.984375 5.58912869704237  3.984375 5.13189448441247  C 3.984375 4.67466027178257  4.11702473958333 4.25259792166267  4.38232421875 3.86570743405276  C 4.64762369791667 3.47881694644285  5.01139322916667 3.1726618705036  5.4736328125 2.94724220623501  C 5.93587239583333 2.72182254196643  6.44205729166667 2.60911270983213  6.9921875 2.60911270983213  C 7.51627604166667 2.60911270983213  8.00944010416667 2.72182254196643  8.4716796875 2.94724220623501  C 8.93391927083333 3.1726618705036  9.30419921875 3.47961630695444  9.58251953125 3.86810551558753  Z " fill-rule="nonzero" fill="#ffffff" stroke="none" transform="matrix(1 0 0 1 366 442 )" />
  </g>
</svg>